<?xml version="1.0" encoding="UTF-8" standalone="no"?>
<!-- Created with Inkscape (http://www.inkscape.org/) -->

<svg
   width="180"
   height="180"
   viewBox="0 0 180 180"
   version="1.1"
   id="svg5"
   inkscape:version="1.1.2 (b8e25be833, 2022-02-05)"
   sodipodi:docname="OrangeChocolateCut_SQMP.svg"
   xmlns:inkscape="http://www.inkscape.org/namespaces/inkscape"
   xmlns:sodipodi="http://sodipodi.sourceforge.net/DTD/sodipodi-0.dtd"
   xmlns:xlink="http://www.w3.org/1999/xlink"
   xmlns="http://www.w3.org/2000/svg"
   xmlns:svg="http://www.w3.org/2000/svg">
  <sodipodi:namedview
     id="namedview7"
     pagecolor="#ffffff"
     bordercolor="#999999"
     borderopacity="1"
     inkscape:pageshadow="0"
     inkscape:pageopacity="0"
     inkscape:pagecheckerboard="0"
     inkscape:document-units="px"
     showgrid="false"
     inkscape:zoom="2.8284271"
     inkscape:cx="84.322484"
     inkscape:cy="89.802561"
     inkscape:window-width="1261"
     inkscape:window-height="829"
     inkscape:window-x="921"
     inkscape:window-y="349"
     inkscape:window-maximized="0"
     inkscape:current-layer="layer1" />
  <defs
     id="defs2">
    <filter
       inkscape:collect="always"
       style="color-interpolation-filters:sRGB"
       id="filter57239"
       x="-0.076678158"
       y="-0.084980377"
       width="1.1533563"
       height="1.1699608">
      <feGaussianBlur
         inkscape:collect="always"
         stdDeviation="5.3577489"
         id="feGaussianBlur57241" />
    </filter>
    <linearGradient
       inkscape:collect="always"
       id="linearGradient1185">
      <stop
         style="stop-color:#ffcc00;stop-opacity:1;"
         offset="0"
         id="stop1181" />
      <stop
         style="stop-color:#ff6600;stop-opacity:1"
         offset="1"
         id="stop1183" />
    </linearGradient>
    <radialGradient
       inkscape:collect="always"
       xlink:href="#linearGradient1185"
       id="radialGradient34914"
       cx="25.172825"
       cy="25.230036"
       fx="25.172825"
       fy="25.230036"
       r="21.110846"
       gradientTransform="matrix(1.3682151,1.604865,-0.66950184,0.57077855,64.44972,-55.799748)"
       gradientUnits="userSpaceOnUse" />
  </defs>
  <g
     inkscape:label="Layer 1"
     inkscape:groupmode="layer"
     id="layer1">
    <path
       style="fill:#ff6600;fill-opacity:1;stroke-width:0.671751"
       d=""
       id="path24712" />
    <g
       id="g58297"
       inkscape:export-filename="C:\Users\ChenZ\Desktop\OrangeChocolateCut1.png"
       inkscape:export-xdpi="96"
       inkscape:export-ydpi="96"
       transform="translate(-0.70710678,2.1213203)">
      <g
         id="g58108"
         transform="matrix(3.6546105,0,0,3.6546105,-209.14228,93.441296)">
        <rect
           style="fill:url(#radialGradient34914);fill-opacity:1;stroke:none;stroke-width:2.14715;stroke-miterlimit:4;stroke-dasharray:none;stroke-opacity:1;paint-order:normal"
           id="rect34667"
           width="47.713943"
           height="45.515743"
           x="58.143028"
           y="-23.757872"
           ry="7.6937122" />
        <rect
           style="fill:#d7eef4;fill-opacity:1;stroke:none;stroke-width:1.87504;stroke-miterlimit:4;stroke-dasharray:none;stroke-opacity:1;paint-order:normal"
           id="rect34870"
           width="41.667171"
           height="39.747547"
           x="62.253426"
           y="-20.988195"
           ry="6.7186904" />
      </g>
      <g
         id="g57327"
         transform="matrix(0.80794189,0,0,0.80794189,3.451392,-11.429288)">
        <path
           id="rect56771"
           style="mix-blend-mode:normal;fill:#808080;fill-opacity:1;stroke-width:1.90154;filter:url(#filter57239)"
           d="m 188.86002,62.690949 -81.96485,31.103516 3.75,8.302735 c -1.29536,0.79559 -2.66612,1.79568 -3.96289,2.87305 -2.24452,0.38008 -4.15515,1.9267 -4.99024,4.06054 a 39.19276,46.777075 55.688624 0 0 -53.939449,8.46875 39.19276,46.777075 55.688624 0 0 -13.917968,50.4961 47.156352,47.626349 10.060823 0 0 36.005859,30.74805 47.156352,47.626349 10.060823 0 0 47.179688,-20.0586 l 0.43555,0.0527 c -0.0948,0.21547 -0.17875,0.43641 -0.28711,0.64453 l -0.49414,0.13867 c -0.21719,0.55643 -0.45942,1.1022 -0.69922,1.64844 -0.096,0.11869 -0.17943,0.24351 -0.28125,0.35937 -1.08703,1.23691 -0.62294,0.52815 -1.67774,1.58594 -0.23512,0.2358 -0.43875,0.50148 -0.6582,0.75195 -0.93602,0.98277 -1.79235,2.07845 -1.93945,3.46289 0.04,0.95123 0.64882,1.4251 1.47265,1.74219 1.44407,0.25865 2.96126,-0.0561 4.33203,-0.53711 0.45475,-0.15955 0.9058,-0.32938 1.35938,-0.49219 -0.25738,0.46178 -0.43826,0.94706 -0.7793,1.35743 l 5.13867,-1.32813 c 0.26547,-0.4671 0.47874,-0.96196 0.77735,-1.41015 0.25538,-0.36066 0.52773,-0.70737 0.81055,-1.04493 0.97742,-0.67187 1.70343,-1.52498 2.29687,-2.72265 0.40591,-0.93235 0.73456,-1.89348 1.08203,-2.84766 0.005,-0.007 0.0103,-0.0144 0.0156,-0.0215 0.008,-0.009 0.0157,-0.0182 0.0234,-0.0273 l 6.88477,0.82422 c -0.012,0.0187 -0.0232,0.038 -0.0352,0.0566 -0.77076,1.36535 -1.26867,2.85633 -1.82812,4.31445 -0.53804,1.3169 -0.82589,2.7194 -1.3086,4.05274 -0.34951,0.80105 -0.73974,1.57125 -1.01758,2.4043 -0.2486,0.71644 -0.37815,1.43184 -0.0644,2.14062 0.7966,0.91341 2.19982,1.00153 3.32813,1.18555 2.3896,0.21023 4.65048,-1.21374 6.74023,-2.15625 0.35224,-0.15887 0.96682,-1.46422 1.14649,-1.81055 0.36115,-1.04269 0.8192,-2.03717 1.48242,-2.89648 0.43789,0.0274 0.87453,0.0813 1.24023,0.27148 l -0.30859,0.11328 c 0.28724,0.66348 0.47563,1.35613 0.60352,2.0625 -0.35665,0.6225 -0.91584,1.18372 -1.35157,1.69531 -0.99521,1.00948 -1.90302,2.09615 -2.77539,3.21094 -0.47416,0.74914 -0.13433,1.24993 -0.0176,2.05469 0.27747,1.09293 1.11541,1.89741 1.85743,2.70117 0.33753,0.30544 0.51192,0.73669 0.85742,1.03516 0.68357,0.59054 1.51832,0.95691 2.32422,1.33984 1.55932,0.71714 3.07702,1.59772 4.80664,1.78711 1.88653,-0.0994 3.65451,-0.82418 5.3789,-1.64062 0.13906,0.001 0.27512,0.002 0.43164,0.004 1.13316,0.075 2.26783,0.20437 3.37696,0.45313 0.78127,0.21071 1.06076,0.83254 1.24414,1.56054 0.0777,1.24505 0.12079,1.55005 1.05469,2.4668 0.83614,0.74838 1.53515,1.62362 2.35351,2.39063 0.63097,0.54548 1.17414,1.14842 1.88281,1.5957 1.68208,0.8781 3.43644,1.6034 5.16211,2.38867 0.28918,0.13375 0.57999,0.26664 0.86915,0.40039 l 4.74609,-2.16211 c -0.29283,-0.13188 -0.58608,-0.26266 -0.87891,-0.39453 -1.69337,-0.77973 -3.41832,-1.49164 -5.06836,-2.36328 -0.15166,-0.0886 -0.53572,-0.30435 -0.6914,-0.42969 -0.40706,-0.32772 -0.68476,-0.80257 -1.14649,-1.07031 -0.24795,-0.22626 -0.47638,-0.46935 -0.71094,-0.70703 -0.31866,-0.70335 -0.17036,-0.39218 -0.58789,-1.22461 -0.86972,-1.73038 -1.05903,-2.1477 -0.39258,-4.02734 l -1.89648,0.55468 c -0.23796,-0.53433 -0.57774,-0.99584 -1.16797,-1.24804 -1.11461,-0.34336 -2.29971,-0.39846 -3.45117,-0.54883 -0.42316,-0.0284 -1.34374,-0.16056 -1.74805,-0.0254 -0.41214,0.13777 -0.83313,0.28805 -1.25,0.42969 -0.45662,-0.0217 -0.91393,-0.0406 -1.37109,-0.0488 -1.38787,-0.0443 -2.77059,-0.21123 -4.16211,-0.16797 l -0.86523,0.4414 c -0.39227,-0.18738 -0.78355,-0.38034 -1.17969,-0.56445 -0.74068,-0.34991 -1.52112,-0.68262 -2.17188,-1.19336 -0.36551,-0.28686 -0.52527,-0.72307 -0.86914,-1.03125 -0.38005,-0.39102 -0.78589,-0.7949 -1.12109,-1.24023 l 0.01,-0.004 c 0.05,-0.13072 0.10036,-0.26186 0.15039,-0.39258 0.43904,-1.03822 0.92309,-2.05512 1.32422,-3.10937 l -1.79687,0.5039 c 0.81474,-1.02358 1.64333,-2.03358 2.54687,-2.98242 0.30231,-0.37088 0.61814,-0.75669 0.89649,-1.1582 l 0.51172,-0.17383 c -0.0255,-0.17553 -0.0548,-0.35111 -0.0859,-0.52539 0.33008,-0.66742 0.4662,-1.38857 0.16992,-2.1875 -0.7392,-1.20691 -1.64994,-1.15275 -2.95312,-1.27148 -2.57791,-0.12589 -3.20591,0.66137 -6.63672,1.89453 -0.56613,0.20349 -1.06926,0.568 -1.51758,0.95898 -0.97803,1.12659 -1.6164,2.42818 -2.16406,3.8086 -0.40916,-0.10333 -0.81064,-0.22853 -1.1836,-0.41211 -0.29283,-0.54219 0.0176,-1.2024 0.17383,-1.74219 0.0948,-0.25937 0.21043,-0.50832 0.32227,-0.75977 l 0.0625,-0.0176 c 0.22128,-0.53603 0.0991,-0.26469 0.36718,-0.81055 0.64273,-1.12097 1.46205,-2.11283 2.23243,-3.14649 l -1.40821,0.36524 c 0.20494,-0.69453 0.42496,-1.38524 0.70117,-2.05664 0.3151,-0.8166 0.62213,-1.63932 0.97071,-2.44336 l 40.7793,4.89062 c 3.50642,0.42053 6.73087,-2.05474 7.23047,-5.55078 l 7.41601,-51.88867 1.72657,0.20898 2.01562,-14.02148 -79.44141,-9.60156 c -0.0691,-0.22303 -0.14006,-0.44238 -0.21289,-0.65625 l 76.27149,-28.943365 z m -67.45313,116.521491 2.26172,0.27148 c -0.084,0.16382 -0.17638,0.32262 -0.24414,0.49805 -0.13224,0.33398 -0.24598,0.67536 -0.36719,1.01367 -0.0839,0.10174 -0.16785,0.20349 -0.25,0.30664 -0.0917,0.13606 -0.18366,0.27214 -0.27539,0.4082 l 0.29297,-0.0742 c -0.31456,0.89016 -0.63833,1.77686 -1.05664,2.625 -0.17776,0.30502 -0.36548,0.5773 -0.5625,0.83399 l -0.31446,0.0762 c -0.37061,0.43728 -0.75014,0.86381 -1.11914,1.29883 -0.10526,0.0732 -0.21532,0.14269 -0.32617,0.21094 -0.58241,0.10193 -1.17805,0.16479 -1.76367,0.14453 -0.53268,-0.1461 -1.07722,-0.27544 -1.19141,-0.81836 l 0.75196,-0.20703 c 0.51923,-1.09281 1.11664,-2.14256 1.85156,-3.10743 l -0.94336,0.24415 c 0.0912,-0.10188 0.18059,-0.206 0.27148,-0.30665 0.14626,-0.15593 0.30326,-0.30504 0.45508,-0.45703 l 1.31055,-0.36328 c 0.0571,-0.13845 0.11478,-0.27756 0.17187,-0.41601 0.2123,-0.56591 0.44976,-1.11967 0.69336,-1.67188 0.11809,-0.16975 0.24559,-0.33517 0.35352,-0.50976 z m 24.18164,7.34179 c -0.19284,0.0724 -0.38678,0.14174 -0.58008,0.21289 0.0206,-0.009 0.0399,-0.0206 0.0606,-0.0293 0.16938,-0.071 0.6915,-0.24813 0.51953,-0.1836 z m -5.73047,5.85547 c 0.20078,-0.0661 -0.37308,0.2111 -0.58008,0.25391 -0.0519,0.0107 -0.10546,0.005 -0.1582,0.008 0.2462,-0.0869 0.49039,-0.18008 0.73828,-0.26172 z" />
        <g
           id="g56609"
           transform="translate(-32.938738,236.02069)">
          <g
             id="g56525"
             transform="matrix(1.0815541,0.13072389,-0.14260872,0.99141881,-136.56408,-187.88817)">
            <g
               id="g56485"
               transform="matrix(1.0290039,0,0,1,-7.3080762,0)">
              <rect
                 style="fill:#917c6f;fill-opacity:1;stroke-width:1.79474"
                 id="rect25131"
                 width="84.537773"
                 height="72.130394"
                 x="251.94901"
                 y="17.849449"
                 ry="6.3644466"
                 transform="matrix(0.99999947,-0.00103277,8.2153391e-4,0.99999966,0,0)" />
              <g
                 id="g56456">
                <g
                   id="g33839">
                  <path
                     style="fill:#ffffff;stroke:#ffffff;stroke-width:1px;stroke-linecap:butt;stroke-linejoin:miter;stroke-opacity:1"
                     d="m 258.72991,37.830213 h 71.06423"
                     id="path33348" />
                  <path
                     style="fill:#ffffff;stroke:#ffffff;stroke-width:1px;stroke-linecap:butt;stroke-linejoin:miter;stroke-opacity:1"
                     d="m 258.72991,54.093669 h 71.06423"
                     id="path33529" />
                  <path
                     style="fill:#ffffff;stroke:#ffffff;stroke-width:1px;stroke-linecap:butt;stroke-linejoin:miter;stroke-opacity:1"
                     d="m 258.72991,76.367533 h 71.06423"
                     id="path33531" />
                  <path
                     style="fill:#ffffff;stroke:#ffffff;stroke-width:1px;stroke-linecap:butt;stroke-linejoin:miter;stroke-opacity:1"
                     d="m 258.72991,69.650018 h 71.06423"
                     id="path33533" />
                  <path
                     style="fill:#ffffff;stroke:#ffffff;stroke-width:0.798007px;stroke-linecap:butt;stroke-linejoin:miter;stroke-opacity:1"
                     d="m 258.72991,61.871843 h 45.25483"
                     id="path33535" />
                  <path
                     style="fill:none;stroke:#ffffff;stroke-width:1px;stroke-linecap:butt;stroke-linejoin:miter;stroke-opacity:1"
                     d="M 304.40947,54.093669 V 68.942911"
                     id="path33640" />
                  <path
                     style="fill:#ffffff;stroke:#ffffff;stroke-width:1px;stroke-linecap:butt;stroke-linejoin:miter;stroke-opacity:1"
                     d="M 281.07495,37.830213 V 53.740115"
                     id="path33675" />
                  <path
                     style="fill:#ffffff;stroke:#ffffff;stroke-width:1px;stroke-linecap:butt;stroke-linejoin:miter;stroke-opacity:1"
                     d="M 307.59145,38.183766 V 53.740115"
                     id="path33677" />
                </g>
                <text
                   xml:space="preserve"
                   style="font-style:normal;font-weight:normal;font-size:7.06192px;line-height:1.25;font-family:sans-serif;fill:#cccccc;fill-opacity:1;stroke:#ffffff;stroke-width:0.176548"
                   x="257.60474"
                   y="44.556599"
                   id="text37561"><tspan
                     sodipodi:role="line"
                     x="257.60474"
                     y="44.556599"
                     id="tspan39679"
                     style="stroke-width:0.176548">SCENE</tspan></text>
                <text
                   xml:space="preserve"
                   style="font-style:normal;font-weight:normal;font-size:7.59675px;line-height:1.25;font-family:sans-serif;fill:#ececec;fill-opacity:1;stroke:#ffffff;stroke-width:0.189919"
                   x="285.09457"
                   y="44.500046"
                   id="text45391"><tspan
                     sodipodi:role="line"
                     x="285.09457"
                     y="44.500046"
                     id="tspan45393"
                     style="fill:#ececec;stroke:#ffffff;stroke-width:0.189919">TAKE</tspan></text>
                <text
                   xml:space="preserve"
                   style="font-style:normal;font-weight:normal;font-size:8.46618px;line-height:1.25;font-family:sans-serif;fill:#ececec;fill-opacity:1;stroke:#ffffff;stroke-width:0.211655"
                   x="309.45905"
                   y="44.901382"
                   id="text47577"><tspan
                     sodipodi:role="line"
                     x="309.45905"
                     y="44.901382"
                     id="tspan47579"
                     style="fill:#ececec;stroke:#ffffff;stroke-width:0.211655">ROLL</tspan></text>
                <text
                   xml:space="preserve"
                   style="font-style:normal;font-weight:normal;font-size:6.44462px;line-height:1.25;font-family:sans-serif;fill:#ececec;fill-opacity:1;stroke:#ffffff;stroke-width:0.161116"
                   x="258.74609"
                   y="60.354492"
                   id="text48641"><tspan
                     sodipodi:role="line"
                     id="tspan48639"
                     x="258.74609"
                     y="60.354492"
                     style="fill:#ececec;stroke:#ffffff;stroke-width:0.161116">DATE</tspan></text>
                <text
                   xml:space="preserve"
                   style="font-style:normal;font-weight:normal;font-size:5.84838px;line-height:1.25;font-family:sans-serif;fill:#ececec;fill-opacity:1;stroke:#ffffff;stroke-width:0.14621"
                   x="258.94565"
                   y="68.165382"
                   id="text49701"><tspan
                     sodipodi:role="line"
                     id="tspan49699"
                     x="258.94565"
                     y="68.165382"
                     style="fill:#ececec;stroke:#ffffff;stroke-width:0.14621">PROD.CO.</tspan></text>
                <text
                   xml:space="preserve"
                   style="font-style:normal;font-weight:normal;font-size:5.8346px;line-height:1.25;font-family:sans-serif;fill:#ececec;fill-opacity:1;stroke:#ffffff;stroke-width:0.145865"
                   x="306.01837"
                   y="60.348274"
                   id="text50287"><tspan
                     sodipodi:role="line"
                     id="tspan50285"
                     x="306.01837"
                     y="60.348274"
                     style="fill:#ececec;stroke:#ffffff;stroke-width:0.145865">SOUND</tspan></text>
                <text
                   xml:space="preserve"
                   style="font-style:normal;font-weight:normal;font-size:5.8346px;line-height:1.25;font-family:sans-serif;fill:#ececec;fill-opacity:1;stroke:#ffffff;stroke-width:0.145865"
                   x="258.32996"
                   y="74.944984"
                   id="text53051"><tspan
                     sodipodi:role="line"
                     id="tspan53049"
                     x="258.32996"
                     y="74.944984"
                     style="fill:#ececec;stroke:#ffffff;stroke-width:0.145865">DIRECTOR</tspan></text>
                <text
                   xml:space="preserve"
                   style="font-style:normal;font-weight:normal;font-size:8.46618px;line-height:1.25;font-family:sans-serif;fill:#ececec;fill-opacity:1;stroke:#ffffff;stroke-width:0.211655"
                   x="257.89331"
                   y="84.071304"
                   id="text53571"><tspan
                     sodipodi:role="line"
                     id="tspan53569"
                     x="257.89331"
                     y="84.071304"
                     style="fill:#ececec;stroke:#ffffff;stroke-width:0.211655">CAMERAMAN</tspan></text>
              </g>
            </g>
            <g
               id="g33313">
              <g
                 id="g33086"
                 transform="translate(-3.8890873,56.922096)">
                <rect
                   style="fill:#241c1c;fill-opacity:1;stroke-width:1.9"
                   id="rect32835"
                   width="81.317284"
                   height="14.142136"
                   x="263.13242"
                   y="-40.127949"
                   ry="0" />
                <path
                   id="rect25277"
                   style="fill:#cccccc;fill-opacity:1;stroke-width:1.71"
                   d="m 267.19828,-39.420164 v 12.726563 h 5.90429 l 10.47071,-12.726563 z m 24.42968,0 -10.4707,12.726563 h 12.55469 l 10.4707,-12.726563 z m 20.60938,0 -10.4707,12.726563 h 11.61914 l 10.46875,-12.726563 z m 19.67187,0 -10.46875,12.726563 h 18.94336 v -12.726563 z" />
              </g>
              <g
                 id="g33092"
                 transform="rotate(-30,346.46753,-1.2690192)">
                <rect
                   style="fill:#241c1c;fill-opacity:1;stroke-width:1.9"
                   id="rect33088"
                   width="81.317284"
                   height="14.142136"
                   x="263.13242"
                   y="-40.127949"
                   ry="0" />
                <path
                   id="path33090"
                   style="fill:#cccccc;fill-opacity:1;stroke-width:1.71"
                   d="m 267.19828,-39.420164 v 12.726563 h 5.90429 l 10.47071,-12.726563 z m 24.42968,0 -10.4707,12.726563 h 12.55469 l 10.4707,-12.726563 z m 20.60938,0 -10.4707,12.726563 h 11.61914 l 10.46875,-12.726563 z m 19.67187,0 -10.46875,12.726563 h 18.94336 v -12.726563 z" />
              </g>
              <path
                 sodipodi:type="star"
                 style="fill:#cccccc;fill-opacity:1;stroke:#241c1c;stroke-width:1.9;stroke-opacity:1"
                 id="path33116"
                 inkscape:flatsided="true"
                 sodipodi:sides="3"
                 sodipodi:cx="236.17368"
                 sodipodi:cy="46.669048"
                 sodipodi:r1="7.7620873"
                 sodipodi:r2="3.8810437"
                 sodipodi:arg1="0.52479577"
                 sodipodi:arg2="1.5719933"
                 inkscape:rounded="0.18"
                 inkscape:randomized="0"
                 d="m 242.89119,50.558136 c -1.2125,2.094313 -12.23684,2.081117 -13.44432,-0.01609 -1.20748,-2.097211 4.31612,-11.637973 6.7361,-11.635076 2.41997,0.0029 7.92072,9.556855 6.70822,11.651169 z"
                 inkscape:transform-center-x="0.8382185"
                 inkscape:transform-center-y="-1.2381238"
                 transform="matrix(1.2969431,0.2954107,-0.27855019,1.3754465,-31.719602,-111.06417)" />
              <circle
                 style="fill:#cccccc;fill-opacity:1;stroke:#241c1c;stroke-width:1.9;stroke-opacity:1"
                 id="path33220"
                 cx="262.33661"
                 cy="17.67767"
                 r="1.767767" />
              <circle
                 style="fill:#cccccc;fill-opacity:1;stroke:#241c1c;stroke-width:1.9;stroke-opacity:1"
                 id="circle33222"
                 cx="265.87216"
                 cy="25.809397"
                 r="1.767767" />
            </g>
          </g>
          <g
             id="g25107"
             transform="rotate(10.060823,762.76308,543.10869)">
            <g
               id="g24076"
               transform="translate(-196.57569,-176.42314)">
              <g
                 id="g14217"
                 transform="matrix(0.7472174,0,0,0.7472174,162.51526,26.407173)">
                <path
                   id="path9403"
                   style="fill:#d2510d;fill-opacity:1;stroke-width:2.25349"
                   d="m 89.833869,191.62354 a 63.10928,63.738277 0 0 1 4.91797,24.65235 A 63.10928,63.738277 0 0 1 31.642467,280.01417 63.10928,63.738277 0 0 1 -0.65636288,270.90089 63.10928,63.738277 0 0 0 57.453009,310.0669 63.10928,63.738277 0 0 0 120.56239,246.32862 63.10928,63.738277 0 0 0 89.833869,191.62354 Z" />
                <g
                   id="g14211"
                   transform="matrix(1.0653474,0,0,1.0653474,-134.4758,-16.394008)">
                  <ellipse
                     style="fill:#f0d570;fill-opacity:1;stroke-width:2.46684"
                     id="path894"
                     cx="287.34595"
                     cy="90.072876"
                     rx="49.428242"
                     ry="58.598709"
                     transform="matrix(0.80595549,0.59197613,-0.62997478,0.77661559,0,0)" />
                  <ellipse
                     style="fill:#ff9955;stroke-width:2.20892"
                     id="ellipse976"
                     cx="287.34595"
                     cy="90.072876"
                     rx="44.260231"
                     ry="52.47187"
                     transform="matrix(0.80595549,0.59197613,-0.62997478,0.77661559,0,0)" />
                </g>
              </g>
              <g
                 id="g24060">
                <ellipse
                   style="fill:#ffe6d5;fill-opacity:1;stroke-width:1.58641"
                   id="path14607"
                   cx="72.82666"
                   cy="278.34573"
                   transform="rotate(-29.985351)"
                   rx="41.896076"
                   ry="35.151932" />
                <path
                   sodipodi:type="star"
                   style="fill:#e39f14;fill-opacity:1;stroke-width:1.9"
                   id="path14265"
                   inkscape:flatsided="true"
                   sodipodi:sides="3"
                   sodipodi:cx="-42.813335"
                   sodipodi:cy="-53.694462"
                   sodipodi:r1="16.087782"
                   sodipodi:r2="8.043891"
                   sodipodi:arg1="1.0244363"
                   sodipodi:arg2="2.0716339"
                   inkscape:rounded="0.18"
                   inkscape:randomized="0"
                   inkscape:transform-center-x="-0.40857831"
                   inkscape:transform-center-y="-1.1068057"
                   transform="matrix(0.74252708,-0.42508108,0.35576398,0.62351396,253.07846,243.31824)"
                   d="m -34.454436,-39.948716 c -4.285499,2.606047 -24.328361,-8.365225 -24.442514,-13.379599 -0.114153,-5.014375 19.408677,-16.886367 23.80833,-14.478039 4.399652,2.408328 4.919683,25.251591 0.634184,27.857638 z" />
                <path
                   sodipodi:type="star"
                   style="fill:#e39f14;fill-opacity:1;stroke-width:1.9"
                   id="path14347"
                   inkscape:flatsided="true"
                   sodipodi:sides="3"
                   sodipodi:cx="-42.813335"
                   sodipodi:cy="-53.694462"
                   sodipodi:r1="16.087782"
                   sodipodi:r2="8.043891"
                   sodipodi:arg1="1.0244363"
                   sodipodi:arg2="2.0716339"
                   inkscape:rounded="0.18"
                   inkscape:randomized="0"
                   inkscape:transform-center-x="-4.4960442"
                   inkscape:transform-center-y="1.7887474"
                   transform="matrix(0.64930246,0.36885031,-0.50628132,0.65834112,179.78047,270.08346)"
                   d="m -34.454436,-39.948716 c -4.285499,2.606047 -24.328361,-8.365225 -24.442514,-13.379599 -0.114153,-5.014375 19.408677,-16.886367 23.80833,-14.478039 4.399652,2.408328 4.919683,25.251591 0.634184,27.857638 z" />
                <path
                   sodipodi:type="star"
                   style="fill:#e39f14;fill-opacity:1;stroke-width:1.9"
                   id="path14451"
                   inkscape:flatsided="true"
                   sodipodi:sides="3"
                   sodipodi:cx="-42.813335"
                   sodipodi:cy="-53.694462"
                   sodipodi:r1="16.087782"
                   sodipodi:r2="8.043891"
                   sodipodi:arg1="1.0244363"
                   sodipodi:arg2="2.0716339"
                   inkscape:rounded="0.18"
                   inkscape:randomized="0"
                   inkscape:transform-center-x="3.0489175"
                   inkscape:transform-center-y="3.0356935"
                   transform="matrix(-0.09712685,0.75420915,-0.81760678,0.02514221,133.20748,228.32091)"
                   d="m -34.454436,-39.948716 c -4.285499,2.606047 -24.328361,-8.365225 -24.442514,-13.379599 -0.114153,-5.014375 19.408677,-16.886367 23.80833,-14.478039 4.399652,2.408328 4.919683,25.251591 0.634184,27.857638 z" />
                <path
                   sodipodi:type="star"
                   style="fill:#e39f14;fill-opacity:1;stroke-width:1.9"
                   id="path14453"
                   inkscape:flatsided="true"
                   sodipodi:sides="3"
                   sodipodi:cx="-42.813335"
                   sodipodi:cy="-53.694462"
                   sodipodi:r1="16.087782"
                   sodipodi:r2="8.043891"
                   sodipodi:arg1="1.0244363"
                   sodipodi:arg2="2.0716339"
                   inkscape:rounded="0.18"
                   inkscape:randomized="0"
                   inkscape:transform-center-x="0.42735673"
                   inkscape:transform-center-y="0.88144801"
                   transform="matrix(-0.75103038,0.40965866,-0.33744308,-0.63375339,153.57914,163.52418)"
                   d="m -34.454436,-39.948716 c -4.285499,2.606047 -24.328361,-8.365225 -24.442514,-13.379599 -0.114153,-5.014375 19.408677,-16.886367 23.80833,-14.478039 4.399652,2.408328 4.919683,25.251591 0.634184,27.857638 z" />
                <path
                   sodipodi:type="star"
                   style="fill:#e39f14;fill-opacity:1;stroke-width:1.9"
                   id="path14455"
                   inkscape:flatsided="true"
                   sodipodi:sides="3"
                   sodipodi:cx="-42.813335"
                   sodipodi:cy="-53.694462"
                   sodipodi:r1="16.087782"
                   sodipodi:r2="8.043891"
                   sodipodi:arg1="1.0244363"
                   sodipodi:arg2="2.0716339"
                   inkscape:rounded="0.18"
                   inkscape:randomized="0"
                   inkscape:transform-center-x="4.4022441"
                   inkscape:transform-center-y="-1.6808517"
                   transform="matrix(-0.63618271,-0.38551613,0.52267201,-0.64872251,227.99029,139.9609)"
                   d="m -34.454436,-39.948716 c -4.285499,2.606047 -24.328361,-8.365225 -24.442514,-13.379599 -0.114153,-5.014375 19.408677,-16.886367 23.80833,-14.478039 4.399652,2.408328 4.919683,25.251591 0.634184,27.857638 z" />
                <path
                   sodipodi:type="star"
                   style="fill:#e39f14;fill-opacity:1;stroke-width:1.9"
                   id="path14457"
                   inkscape:flatsided="true"
                   sodipodi:sides="3"
                   sodipodi:cx="-42.813335"
                   sodipodi:cy="-53.694462"
                   sodipodi:r1="16.087782"
                   sodipodi:r2="8.043891"
                   sodipodi:arg1="1.0244363"
                   sodipodi:arg2="2.0716339"
                   inkscape:rounded="0.18"
                   inkscape:randomized="0"
                   inkscape:transform-center-x="-2.8746265"
                   inkscape:transform-center-y="-2.7068615"
                   transform="matrix(0.05059372,-0.75156873,0.8217997,-0.06788241,272.24803,179.24012)"
                   d="m -34.454436,-39.948716 c -4.285499,2.606047 -24.328361,-8.365225 -24.442514,-13.379599 -0.114153,-5.014375 19.408677,-16.886367 23.80833,-14.478039 4.399652,2.408328 4.919683,25.251591 0.634184,27.857638 z" />
                <ellipse
                   style="fill:#ffccaa;fill-opacity:1;stroke-width:1.48905"
                   id="path14481"
                   cx="73.582909"
                   cy="279.48785"
                   transform="rotate(-29.985351)"
                   rx="5.1424785"
                   ry="4.3146777" />
              </g>
            </g>
            <g
               id="g24281"
               transform="translate(-93.533404,109.46415)">
              <path
                 style="fill:#e39f14;fill-opacity:1;stroke-width:1.9"
                 id="path24195"
                 d="m 142.16481,-72.317724 c 0.32637,0.106317 1.55743,0.0714 1.77038,0.323812 0.0693,0.08216 -0.22207,-0.02538 -0.32217,0.01379 -0.37536,0.146904 -1.4173,0.762733 -1.08374,0.536443 0.78503,-0.532562 1.629,-0.972599 2.4435,-1.458899 -3.18779,1.834359 -6.71053,3.02537 -9.90087,4.850984 -1.81098,1.0363 -3.60304,2.105334 -5.40456,3.158001 -1.33142,1.007549 -1.95039,2.423564 -2.20915,4.024188 -0.20808,1.610272 -0.33507,3.253608 -0.96746,4.763281 -0.4889,0.518975 -0.22358,0.309657 -0.78024,0.647375 0,0 4.8993,-1.972445 4.8993,-1.972445 v 0 c 0.47423,-0.507999 0.25095,-0.216171 0.64603,-0.893183 0.51425,-1.572516 0.66141,-3.221299 0.93315,-4.847188 0.31605,-1.495186 1.00594,-2.736262 2.31708,-3.596991 -1.14637,0.646299 -2.29796,1.283422 -3.4391,1.938897 -0.44722,0.256882 0.89909,-0.505992 1.35714,-0.743018 2.83414,-1.46658 5.79631,-2.671761 8.62023,-4.159691 2.09974,-1.199637 4.23774,-2.334656 6.29922,-3.598911 0.39616,-0.242955 0.81988,-0.510512 1.0551,-0.911313 0.60186,-1.025534 -1.51325,-1.026706 -1.92518,-1.140419 0,0 -4.30866,3.065287 -4.30866,3.065287 z" />
              <path
                 style="fill:#e39f14;fill-opacity:1;stroke-width:1.9"
                 id="path24197"
                 d="m 144.97278,-72.902578 c 1.16386,4.181555 1.5134,8.550562 1.31166,12.877023 -0.0367,0.786324 -0.12221,1.569607 -0.18331,2.35441 -0.13007,1.772115 -0.63718,3.402753 -1.55653,4.917851 -0.85423,1.407788 -0.52107,0.628936 -1.37486,1.854728 -0.19032,0.273248 -0.34462,0.569892 -0.51694,0.854839 -0.74994,1.131183 -1.40249,2.359423 -1.30548,3.748269 0.20557,0.929612 0.88744,1.290248 1.754,1.458551 1.46704,0.0024 2.90697,-0.572959 4.17265,-1.285978 1.79917,-1.01356 3.57929,-2.060559 5.36894,-3.090838 1.62725,-1.077834 2.55816,-2.280634 3.10192,-4.140459 0.36077,-1.506648 0.52837,-3.048605 0.87443,-4.558218 0.26618,-1.156561 1.02233,-2.049826 1.66137,-3.008731 0.91887,-1.203437 1.31539,-2.67173 1.68032,-4.115146 0.3205,-1.177326 0.49824,-2.390581 0.78887,-3.57403 0.0836,-0.340422 0.14318,-0.69362 0.29599,-1.009096 0.33618,-0.694045 0.66629,-0.830862 1.25135,-1.259997 -1.24427,0.756266 -2.54427,1.427669 -3.73282,2.268797 -0.21295,0.150702 0.50383,-0.154953 0.76438,-0.168059 1.29227,-0.065 2.18836,0.717213 3.02434,1.567413 1.29444,1.555569 1.76896,3.440642 2.01937,5.399442 0.17399,1.790479 -0.45641,3.460349 -1.13206,5.080734 -0.52039,1.479001 -0.75128,3.033634 -1.0474,4.56707 -0.29971,1.390623 -0.33652,2.821974 -0.57888,4.219137 -0.2042,0.849793 -0.45429,1.675891 -0.58232,2.544675 -0.11962,0.74885 -0.12211,1.475512 0.31059,2.118592 0.94391,0.760207 2.3395,0.602493 3.48261,0.586573 2.38958,-0.210451 4.36859,-2.007676 6.26156,-3.300763 0.31907,-0.217958 0.69479,-1.609968 0.81119,-1.982355 0.23126,-1.453007 0.64721,-2.851283 1.53628,-4.037851 0.15468,-0.130954 0.30464,-0.267701 0.46405,-0.392863 0.15534,-0.121965 0.31353,-0.240979 0.47952,-0.348001 0.15437,-0.09953 0.63804,-0.364239 0.47999,-0.270655 -1.34022,0.793559 -2.70383,1.548292 -4.02659,2.370636 -0.15473,0.0962 0.33863,-0.136326 0.51372,-0.186716 0.19779,-0.05692 0.40175,-0.0897 0.60262,-0.134557 0.93427,-0.10195 2.06587,-0.419474 2.80727,0.320262 0.65306,1.262548 -0.37757,2.553975 -0.99901,3.614869 -0.80356,1.167813 -1.50637,2.396956 -2.17058,3.647 -0.336,0.820462 0.0863,1.253851 0.34185,2.025841 0.46413,1.027646 1.42956,1.672832 2.30058,2.334608 0.3857,0.241777 0.63283,0.637562 1.02516,0.871089 0.77622,0.462038 1.66207,0.675641 2.52247,0.911901 1.66063,0.43371 3.30793,1.036304 5.04404,0.92063 2.72927,-0.634006 4.9751,-2.556269 7.24199,-4.156391 1.59068,-0.935063 3.92921,-2.421997 -3.43762,1.981225 -0.14198,0.08486 0.29743,-0.146842 0.45386,-0.200618 0.41341,-0.142126 0.74523,-0.178061 1.17697,-0.250264 1.12882,-0.124162 2.27012,-0.195726 3.40565,-0.144546 0.80607,0.07098 1.18961,0.635231 1.49734,1.32 0.29399,1.212336 0.38899,1.504189 1.46867,2.243692 0.95402,0.590808 1.79614,1.330498 2.73591,1.942748 0.71656,0.426867 1.35648,0.92569 2.13239,1.242289 1.80961,0.570752 3.66382,0.97818 5.50014,1.449908 0.30809,0.08118 0.61618,0.162364 0.92426,0.243546 0,0 4.29573,-2.958212 4.29573,-2.958212 v 0 c -0.31136,-0.07869 -0.62272,-0.157381 -0.93408,-0.236071 -1.80354,-0.471918 -3.62563,-0.871826 -5.40257,-1.441819 -0.16481,-0.06075 -0.58075,-0.204424 -0.75594,-0.300642 -0.45805,-0.251568 -0.81507,-0.671936 -1.31647,-0.854892 -0.94869,-0.600197 -1.81214,-1.302924 -2.74177,-1.93065 -0.12589,-0.07994 -0.65055,-0.396707 -0.77703,-0.532947 -0.36522,-0.393372 -0.27156,-1.018482 -0.52331,-1.46976 -0.38294,-0.815937 -0.87021,-1.56886 -1.803,-1.785512 -1.15745,-0.143367 -2.33371,0.01044 -3.49373,0.06354 -0.42161,0.04599 -1.35072,0.07494 -1.7252,0.278645 -1.86693,1.015552 -3.80334,2.076747 -5.5946,3.278773 -0.44986,0.318612 -0.31142,0.216545 -0.76242,0.552596 -0.13966,0.104061 -0.57109,0.396595 -0.41817,0.313246 1.36299,-0.742882 2.69408,-1.543066 4.05257,-2.294143 0.16117,-0.0891 -0.29493,0.223882 -0.45907,0.307376 -0.16516,0.08402 -0.3479,0.127728 -0.52185,0.191592 -1.71803,0.33003 -3.32319,-0.280134 -4.97329,-0.718143 -0.79042,-0.215137 -1.61619,-0.405578 -2.34616,-0.794782 -0.41,-0.218599 -0.645,-0.620792 -1.03742,-0.86416 -0.79452,-0.572053 -1.70065,-1.149565 -2.11693,-2.067784 -0.20012,-0.595996 -0.52329,-1.042283 -0.1582,-1.636775 0.66168,-1.226248 1.33824,-2.440877 2.10903,-3.603711 0.73122,-1.312531 1.62505,-2.776858 0.76414,-4.243796 -0.93867,-1.05922 -1.82575,-0.845579 -3.12964,-0.734828 -2.56026,0.326394 -3.0416,1.21169 -6.20423,3.025236 -0.52187,0.299256 -0.95338,0.744606 -1.3265,1.207893 -0.77164,1.28923 -1.17359,2.694264 -1.47233,4.160362 -0.17548,0.477181 -0.27874,0.842429 -0.55975,1.272419 -0.10794,0.165155 -0.5574,0.540331 -0.38015,0.453682 1.38094,-0.675074 2.67797,-1.510153 4.03149,-2.238647 0.18614,-0.100182 -0.33079,0.274213 -0.52713,0.352525 -0.20661,0.08241 -0.43768,0.07972 -0.65652,0.119584 -1.03238,0.05778 -2.13699,0.09908 -3.13866,-0.190943 -0.38305,-0.482695 -0.19357,-1.185297 -0.13402,-1.744077 0.15166,-0.858765 0.4421,-1.681233 0.56693,-2.544742 0.17353,-1.394638 0.25272,-2.8031 0.55309,-4.180562 0.29447,-1.509486 0.53979,-3.04125 1.09943,-4.481674 0.65695,-1.702927 1.20008,-3.459541 0.98764,-5.310922 -0.29742,-2.061639 -0.84722,-4.027216 -2.18756,-5.678974 -0.24056,-0.259966 -0.45736,-0.544131 -0.72168,-0.779898 -0.68223,-0.608526 -1.63358,-1.108638 -2.5549,-1.206627 -0.28642,-0.03046 -0.60499,-0.08928 -0.86326,0.03824 -1.78984,0.883718 -3.47096,1.972413 -5.20644,2.958619 -0.20844,0.21452 -0.45003,0.401194 -0.62531,0.643558 -1.02521,1.417574 -0.94191,3.841195 -1.58173,5.480056 -0.40037,1.413769 -0.86904,2.800997 -1.79209,3.971363 -0.68983,0.98323 -1.33453,1.989142 -1.56931,3.190152 -0.30606,1.49896 -0.45586,3.029718 -0.88341,4.502137 -0.63807,1.73688 -1.6296,2.814305 -3.21672,3.777675 7.03397,-4.020971 3.35563,-1.789992 1.73871,-1.123604 -0.66704,0.274911 -1.38391,0.483985 -2.09795,0.585345 -0.62237,-0.05748 -1.25743,-0.08872 -1.37987,-0.825143 0.014,-1.280589 0.71578,-2.381154 1.3756,-3.436119 0.59357,-0.910392 1.29644,-1.767715 1.80839,-2.728849 0.83966,-1.576405 1.27057,-3.265058 1.3642,-5.049266 0.26973,-5.191205 0.0863,-10.398947 -1.03594,-15.494661 0,0 -4.58651,2.516513 -4.58651,2.516513 z" />
            </g>
            <path
               style="fill:#552200;fill-opacity:1;stroke-width:1.9"
               id="path24458"
               d="m 51.381729,40.119597 c -0.08365,1.131389 0.266853,1.942911 0.811898,2.898443 0,0 4.562013,-2.632268 4.562013,-2.632268 v 0 c -0.536565,-0.929152 -0.762572,-1.570369 -0.657138,-2.669491 0,0 -4.716773,2.403316 -4.716773,2.403316 z" />
            <path
               style="fill:#552200;fill-opacity:1;stroke-width:1.9"
               id="path24460"
               d="m 52.795943,47.190665 c 0.02309,1.232764 0.01646,2.466007 0.01466,3.698961 -8.02e-4,0.195347 -0.0016,0.390694 -0.0024,0.586041 0,0 4.692268,-2.390831 4.692268,-2.390831 v 0 c -8.02e-4,-0.194529 -0.0016,-0.389059 -0.0024,-0.583589 -0.0018,-1.237934 -0.0083,-2.476149 0.01466,-3.713898 0,0 -4.716772,2.403316 -4.716772,2.403316 z" />
            <path
               style="fill:#552200;fill-opacity:1;stroke-width:1.9"
               id="path24462"
               d="m 49.75237,59.464372 c -0.527095,1.103399 -0.90285,2.26273 -1.211328,3.443069 0,0 4.741468,-2.261628 4.741468,-2.261628 v 0 c 0.320343,-1.166711 0.723539,-2.305013 1.278595,-3.383433 0,0 -4.808735,2.201992 -4.808735,2.201992 z" />
            <path
               style="fill:#552200;fill-opacity:1;stroke-width:1.9"
               id="path24464"
               d="m 51.625553,54.563161 c -0.234425,1.17734 -0.578261,2.326946 -0.786924,3.510853 -0.04088,0.136132 -0.08175,0.272264 -0.122629,0.408396 0,0 4.769065,-2.280085 4.769065,-2.280085 v 0 c 0.03204,-0.1463 0.06408,-0.2926 0.09611,-0.4389 0.218538,-1.178824 0.544001,-2.3313 0.811441,-3.499329 0,0 -4.767067,2.299065 -4.767067,2.299065 z" />
            <path
               style="fill:#552200;fill-opacity:1;stroke-width:1.9"
               id="path24466"
               d="m 61.825276,45.345819 c -0.30237,0.993539 -0.53626,2.00411 -0.715233,3.026484 0,0 4.736476,-2.308261 4.736476,-2.308261 v 0 c 0.18546,-1.006014 0.418884,-2.003865 0.767892,-2.96738 0,0 -4.789135,2.249157 -4.789135,2.249157 z" />
            <path
               style="fill:#552200;fill-opacity:1;stroke-width:1.9"
               id="path24468"
               d="m 59.888231,52.239143 c -0.69727,0.96174 -1.346687,1.961983 -1.913173,3.006579 -0.06655,0.149993 -0.133111,0.299987 -0.199667,0.44998 0,0 4.80628,-2.187461 4.80628,-2.187461 v 0 c 0.06953,-0.13809 0.139057,-0.27618 0.208585,-0.41427 0.586779,-1.01673 1.208065,-2.022678 1.971921,-2.917662 0,0 -4.873946,2.062834 -4.873946,2.062834 z" />
            <path
               style="fill:#552200;fill-opacity:1;stroke-width:1.9"
               id="path24470"
               d="m 56.764848,59.388699 c -0.609231,1.045855 -1.27294,2.048789 -1.749749,3.166426 -0.187678,0.519922 -0.277492,1.054156 -0.552885,1.537598 0,0 4.827665,-2.206052 4.827665,-2.206052 v 0 c 0.179782,-0.506299 0.302838,-1.031164 0.51856,-1.524624 0.512019,-1.08607 1.172406,-2.085668 1.797742,-3.108576 0,0 -4.841333,2.135228 -4.841333,2.135228 z" />
            <path
               style="fill:#552200;fill-opacity:1;stroke-width:1.9"
               id="path24472"
               d="m 66.745237,41.276203 c 0.739609,0.456635 1.345637,1.062185 1.89335,1.728259 0,0 4.513355,-2.706356 4.513355,-2.706356 v 0 c -0.578194,-0.700629 -1.213517,-1.341974 -1.957224,-1.870857 0,0 -4.449481,2.848954 -4.449481,2.848954 z" />
            <path
               style="fill:#552200;fill-opacity:1;stroke-width:1.9"
               id="path24474"
               d="m 69.758234,46.562619 c 0.737986,0.836402 1.30087,1.768775 1.465437,2.877187 -0.02857,0.782558 -0.109025,1.595779 -0.556252,2.258548 0,0 4.833531,-2.179044 4.833531,-2.179044 v 0 c 0.321961,-0.814729 0.457537,-1.67899 0.382034,-2.555656 -0.233268,-1.185391 -0.841854,-2.191363 -1.591049,-3.131637 0,0 -4.533701,2.730602 -4.533701,2.730602 z" />
            <path
               style="fill:#552200;fill-opacity:1;stroke-width:1.9"
               id="path24476"
               d="m 69.55136,58.757265 c -0.593565,1.153893 -1.211641,2.285159 -1.614407,3.522965 -0.157831,0.630772 -0.09143,0.319988 -0.201985,0.931754 0,0 4.755949,-2.306599 4.755949,-2.306599 v 0 c 0.124238,-0.566439 0.05169,-0.278582 0.220322,-0.862895 0.437014,-1.216013 1.070897,-2.334867 1.648856,-3.487217 0,0 -4.808735,2.201992 -4.808735,2.201992 z" />
            <path
               style="fill:#ff6600;fill-opacity:1;stroke-width:1.9"
               id="path24478"
               d="m 80.302845,58.591257 c 0.54741,0.827985 0.92392,1.742361 1.212153,2.687263 0,0 4.62067,-2.536701 4.62067,-2.536701 v 0 c -0.324206,-0.978846 -0.736227,-1.921707 -1.259723,-2.812227 0,0 -4.5731,2.661665 -4.5731,2.661665 z" />
            <path
               style="fill:#ff6600;fill-opacity:1;stroke-width:1.9"
               id="path24513"
               d="m 79.909824,65.169763 c -0.144958,1.120635 -0.511984,2.189367 -0.751359,3.289748 -0.02494,0.144343 -0.04987,0.288685 -0.07481,0.433028 0,0 4.753403,-2.314982 4.753403,-2.314982 v 0 c 0.02644,-0.137452 0.05288,-0.274904 0.07931,-0.412357 0.25091,-1.098952 0.549723,-2.186392 0.760514,-3.294502 0,0 -4.767068,2.299065 -4.767068,2.299065 z" />
            <path
               style="fill:#ff6600;fill-opacity:1;stroke-width:1.9"
               id="path24515"
               d="m 86.350181,72.221797 c 1.361282,-0.314548 2.752286,-0.442941 4.136134,-0.609642 0.584556,-0.0816 1.169315,-0.161212 1.754775,-0.236012 0,0 4.226713,-3.152318 4.226713,-3.152318 v 0 c -0.592451,0.07315 -1.184081,0.151934 -1.773703,0.245688 -1.374263,0.198876 -2.766307,0.275197 -4.128871,0.560882 0,0 -4.215048,3.191402 -4.215048,3.191402 z" />
            <path
               style="fill:#ff6600;fill-opacity:1;stroke-width:1.9"
               id="path24517"
               d="m 100.8239,69.791842 c -0.0238,0.682537 -0.19647,1.363818 0.001,2.040489 0.23847,0.816789 0.8345,1.503811 1.328,2.173906 0.56483,0.77837 0.301,0.396721 0.79502,1.142497 0,0 4.53383,-2.660067 4.53383,-2.660067 v 0 c -0.51944,-0.756389 -0.245,-0.371988 -0.82589,-1.151363 -1.15863,-1.551837 -1.41711,-1.929142 -1.08926,-3.896297 0,0 -4.7428,2.350835 -4.7428,2.350835 z" />
            <path
               style="fill:#ff6600;fill-opacity:1;stroke-width:0.671751"
               d="m 71.415607,49.939416 c -0.0012,-0.534749 -0.239847,-1.42798 -0.53033,-1.984957 -0.290484,-0.556977 -0.528152,-1.141922 -0.528152,-1.299878 0,-0.313361 3.86138,-2.615708 4.041877,-2.409968 0.993532,1.132482 1.566859,3.888714 0.990845,4.763426 -0.296258,0.449884 -3.048858,1.903649 -3.604424,1.903649 -0.202201,0 -0.368618,-0.437522 -0.369816,-0.972272 z"
               id="path24556" />
            <path
               style="fill:#ff6600;fill-opacity:1;stroke-width:0.671751"
               d="m 68.235804,62.234855 c 0,-0.189252 0.332913,-1.024522 0.739807,-1.856155 0.587776,-1.201332 1.107892,-1.676115 2.530977,-2.310378 0.985144,-0.439074 1.837985,-0.751503 1.895202,-0.694285 0.05722,0.05722 -0.159426,0.83668 -0.481431,1.732139 -0.506114,1.407445 -0.840349,1.753115 -2.466065,2.550441 -2.106709,1.033227 -2.21849,1.062362 -2.21849,0.578238 z"
               id="path24595" />
            <path
               style="fill:#ff6600;fill-opacity:1;stroke-width:0.671751"
               d="m 67.956936,41.975576 -0.756007,-0.804733 2.06889,-1.293247 2.068889,-1.293247 0.768498,0.818028 0.768497,0.818028 -1.347678,0.816344 c -0.741222,0.44899 -1.677843,1.024968 -2.081379,1.279952 -0.641775,0.405521 -0.828424,0.36278 -1.48971,-0.341125 z"
               id="path24634" />
            <path
               style="fill:#ff6600;fill-opacity:1;stroke-width:0.671751"
               d="m 55.186436,62.671278 c 0.202488,-0.532583 0.678902,-1.471125 1.058699,-2.085648 0.611738,-0.989814 1.165755,-1.325973 4.125639,-2.503305 0.263659,-0.104874 0.08998,0.586582 -0.42834,1.705324 -0.732721,1.581504 -1.170122,2.03623 -2.741571,2.850161 -2.347004,1.215631 -2.464627,1.217585 -2.014427,0.03347 z"
               id="path24673" />
            <path
               style="fill:#ff6600;fill-opacity:1;stroke-width:0.671751"
               d="m 58.722855,54.358834 c 0.226283,-0.437522 0.659512,-1.079693 0.962731,-1.427045 0.58823,-0.673846 3.604224,-2.134199 3.866333,-1.87209 0.466247,0.466248 -1.29222,2.336135 -2.971413,3.159689 -2.313581,1.134686 -2.374757,1.139279 -1.857651,0.139446 z"
               id="path24751" />
            <path
               style="fill:#ff6600;fill-opacity:1;stroke-width:0.671751"
               d="m 61.708276,46.580659 c 0.135393,-0.631976 0.267358,-1.151253 0.293256,-1.153947 0.0259,-0.0027 0.961907,-0.438488 2.08002,-0.96843 2.084918,-0.988171 2.246863,-0.922273 1.803382,0.733826 -0.151525,0.565837 -0.823278,1.088002 -2.160486,1.679379 -1.067325,0.472021 -2.012984,0.858221 -2.101466,0.858221 -0.08848,0 -0.0501,-0.517072 0.08529,-1.149049 z"
               id="path24790" />
            <path
               style="fill:#ff6600;fill-opacity:1;stroke-width:0.671751"
               d="m 49.143921,61.924602 c 0,-0.165437 0.166307,-0.762059 0.36957,-1.325825 0.277992,-0.771032 0.891255,-1.261095 2.474874,-1.977685 1.157917,-0.52396 2.105304,-0.901362 2.105304,-0.838672 0,0.06269 -0.239937,0.68823 -0.533192,1.39009 -0.393742,0.942358 -0.991709,1.508456 -2.286344,2.164498 -1.923884,0.974905 -2.130212,1.031819 -2.130212,0.587594 z"
               id="path24829" />
            <path
               style="fill:#ff6600;fill-opacity:1;stroke-width:0.671751"
               d="m 51.380319,56.363524 c 0.342953,-1.498708 0.522762,-1.696077 2.415742,-2.65165 1.124866,-0.56783 2.107225,-1.032419 2.18302,-1.032419 0.0758,0 -0.02893,0.728655 -0.232722,1.619232 -0.342953,1.498709 -0.522763,1.696077 -2.415743,2.65165 -1.124865,0.567831 -2.107225,1.032419 -2.18302,1.032419 -0.0758,0 0.02893,-0.728654 0.232723,-1.619232 z"
               id="path24868" />
            <path
               style="fill:#ff6600;fill-opacity:1;stroke-width:0.671751"
               d="m 53.033009,49.040796 v -1.870892 l 1.952376,-0.957535 c 1.073807,-0.526644 2.028401,-0.957535 2.12132,-0.957535 0.09292,0 0.168944,0.841901 0.168944,1.870892 v 1.870892 l -1.952376,0.957535 c -1.073807,0.526645 -2.028401,0.957535 -2.12132,0.957535 -0.09292,0 -0.168944,-0.841901 -0.168944,-1.870892 z"
               id="path24907" />
            <path
               style="fill:#ff6600;fill-opacity:1;stroke-width:0.671751"
               d="m 51.997005,42.118924 c -0.757727,-1.415826 -0.452802,-1.983505 1.608447,-2.994435 1.092661,-0.535892 2.01504,-0.927008 2.049732,-0.869147 0.03469,0.05786 0.249286,0.539008 0.476875,1.069216 0.397264,0.925491 0.347142,1.002099 -1.254237,1.917036 -0.91742,0.524161 -1.855815,1.094995 -2.085322,1.268521 -0.274604,0.207623 -0.546605,0.07386 -0.795495,-0.391191 z"
               id="path24946" />
          </g>
        </g>
      </g>
    </g>
  </g>
</svg>
