<?xml version="1.0" encoding="UTF-8" standalone="no"?>
<!-- Created with Inkscape (http://www.inkscape.org/) -->

<svg
   sodipodi:docname="OrangeChocolateCut_SQMP.svg"
   inkscape:version="1.1.2 (b8e25be833, 2022-02-05)"
   id="svg5"
   version="1.1"
   viewBox="0 0 180 180"
   height="180"
   width="180"
   xmlns:inkscape="http://www.inkscape.org/namespaces/inkscape"
   xmlns:sodipodi="http://sodipodi.sourceforge.net/DTD/sodipodi-0.dtd"
   xmlns:xlink="http://www.w3.org/1999/xlink"
   xmlns="http://www.w3.org/2000/svg"
   xmlns:svg="http://www.w3.org/2000/svg">
  <sodipodi:namedview
     id="namedview7"
     pagecolor="#ffffff"
     bordercolor="#999999"
     borderopacity="1"
     inkscape:pageshadow="0"
     inkscape:pageopacity="0"
     inkscape:pagecheckerboard="0"
     inkscape:document-units="px"
     showgrid="false"
     inkscape:zoom="2"
     inkscape:cx="91.75"
     inkscape:cy="90.5"
     inkscape:window-width="1729"
     inkscape:window-height="1197"
     inkscape:window-x="264"
     inkscape:window-y="208"
     inkscape:window-maximized="0"
     inkscape:current-layer="layer1" />
  <defs
     id="defs2">
    <linearGradient
       inkscape:collect="always"
       id="linearGradient1185">
      <stop
         style="stop-color:#ffcc00;stop-opacity:1;"
         offset="0"
         id="stop1181" />
      <stop
         style="stop-color:#ff6600;stop-opacity:1"
         offset="1"
         id="stop1183" />
    </linearGradient>
    <radialGradient
       inkscape:collect="always"
       xlink:href="#linearGradient1185"
       id="radialGradient34914"
       cx="25.172825"
       cy="25.230036"
       fx="25.172825"
       fy="25.230036"
       r="21.110846"
       gradientTransform="matrix(1.3682151,1.604865,-0.66950184,0.57077855,64.44972,-55.799748)"
       gradientUnits="userSpaceOnUse" />
    <linearGradient
       inkscape:collect="always"
       xlink:href="#linearGradient1185"
       id="linearGradient13253"
       x1="145.664"
       y1="132.58252"
       x2="226.27417"
       y2="132.58252"
       gradientUnits="userSpaceOnUse"
       gradientTransform="translate(-71.064232,-26.162951)" />
  </defs>
  <g
     inkscape:label="Layer 1"
     inkscape:groupmode="layer"
     id="layer1">
    <path
       style="fill:#ff6600;fill-opacity:1;stroke-width:0.671751"
       d=""
       id="path24712" />
    <g
       id="g58108"
       transform="matrix(3.6546105,0,0,3.6546105,-209.14228,93.441296)">
      <rect
         style="fill:url(#radialGradient34914);fill-opacity:1;stroke:none;stroke-width:2.14715;stroke-miterlimit:4;stroke-dasharray:none;stroke-opacity:1;paint-order:normal"
         id="rect34667"
         width="47.713943"
         height="45.515743"
         x="58.143028"
         y="-23.757872"
         ry="7.6937122" />
      <rect
         style="fill:#d7eef4;fill-opacity:1;stroke:none;stroke-width:1.87504;stroke-miterlimit:4;stroke-dasharray:none;stroke-opacity:1;paint-order:normal"
         id="rect34870"
         width="41.667171"
         height="39.747547"
         x="62.253426"
         y="-20.988195"
         ry="6.7186904" />
    </g>
    <g
       id="g14391"
       transform="translate(4.6061307,-19.783149)">
      <ellipse
         style="fill:url(#linearGradient13253);fill-opacity:1;stroke:#ffb380;stroke-width:0.5;stroke-opacity:1"
         id="path1428"
         cx="114.90485"
         cy="106.41957"
         rx="40.305088"
         ry="39.951534" />
      <path
         sodipodi:type="star"
         style="fill:#ffcc00;fill-opacity:1;stroke:#ff6600;stroke-width:0.5;stroke-opacity:1"
         id="path14161"
         inkscape:flatsided="false"
         sodipodi:sides="7"
         sodipodi:cx="129.7541"
         sodipodi:cy="71.064232"
         sodipodi:r1="1.4520782"
         sodipodi:r2="2.3048861"
         sodipodi:arg1="1.0303768"
         sodipodi:arg2="1.4791758"
         inkscape:rounded="0.18"
         inkscape:randomized="0"
         d="m 130.50119,72.309379 c -0.18198,0.109191 -0.32487,1.030654 -0.53621,1.050072 -0.21134,0.01942 -0.51973,-0.860583 -0.71857,-0.934786 -0.19883,-0.0742 -1.00835,0.38861 -1.1553,0.235485 -0.14695,-0.153126 0.34878,-0.942912 0.28282,-1.144632 -0.066,-0.201721 -0.93252,-0.546066 -0.90442,-0.756428 0.0281,-0.210362 0.95466,-0.315209 1.07124,-0.492547 0.11659,-0.177339 -0.15449,-1.069543 0.0275,-1.178735 0.18199,-0.109191 0.84166,0.549853 1.053,0.530436 0.21134,-0.01942 0.73988,-0.787632 0.93872,-0.71343 0.19883,0.0742 0.0949,1.000864 0.24182,1.15399 0.14695,0.153125 1.0771,0.08738 1.14306,0.289101 0.066,0.201721 -0.72335,0.698204 -0.75145,0.908566 -0.0281,0.210362 0.60325,0.896595 0.48666,1.073934 -0.11659,0.177339 -0.99688,-0.130218 -1.17887,-0.02103 z"
         inkscape:transform-center-x="0.065251925"
         inkscape:transform-center-y="-0.48076453"
         transform="matrix(0.82878136,0,0,0.70910571,21.766647,21.398293)" />
    </g>
    <g
       id="g13887"
       transform="matrix(0.65973004,0,0,0.65973004,15.003988,-72.169628)">
      <rect
         style="fill:#ac9393;fill-opacity:1;stroke:#6c5353;stroke-width:0.5;stroke-opacity:1"
         id="rect13426"
         width="230.16325"
         height="66.46804"
         x="4.9497476"
         y="215.31401" />
      <rect
         style="fill:#241c1c;fill-opacity:1;stroke:#6c5353;stroke-width:0.5;stroke-opacity:1"
         id="rect13494"
         width="60.811184"
         height="44.194176"
         x="14.849243"
         y="226.45094" />
      <rect
         style="fill:#241c1c;fill-opacity:1;stroke:#6c5353;stroke-width:0.5;stroke-opacity:1"
         id="rect13578"
         width="60.811184"
         height="44.194176"
         x="90.156128"
         y="226.45094" />
      <rect
         style="fill:#241c1c;fill-opacity:1;stroke:#6c5353;stroke-width:0.5;stroke-opacity:1"
         id="rect13580"
         width="60.811184"
         height="44.194176"
         x="165.46301"
         y="226.45094" />
      <g
         id="g13833"
         transform="translate(0,-10)">
        <rect
           style="fill:#cccccc;fill-opacity:1;stroke:#6c5353;stroke-width:0.5;stroke-opacity:1"
           id="rect13720"
           width="10.606602"
           height="6.7175145"
           x="48.861076"
           y="281.60526" />
        <rect
           style="fill:#cccccc;fill-opacity:1;stroke:#6c5353;stroke-width:0.5;stroke-opacity:1"
           id="rect13802"
           width="10.606602"
           height="6.7175145"
           x="70.816742"
           y="281.60526" />
        <rect
           style="fill:#cccccc;fill-opacity:1;stroke:#6c5353;stroke-width:0.5;stroke-opacity:1"
           id="rect13804"
           width="10.606602"
           height="6.7175145"
           x="92.772415"
           y="281.60526" />
        <rect
           style="fill:#cccccc;fill-opacity:1;stroke:#6c5353;stroke-width:0.5;stroke-opacity:1"
           id="rect13806"
           width="10.606602"
           height="6.7175145"
           x="114.72807"
           y="281.60526" />
        <rect
           style="fill:#cccccc;fill-opacity:1;stroke:#6c5353;stroke-width:0.5;stroke-opacity:1"
           id="rect13808"
           width="10.606602"
           height="6.7175145"
           x="136.68375"
           y="281.60526" />
        <rect
           style="fill:#cccccc;fill-opacity:1;stroke:#6c5353;stroke-width:0.5;stroke-opacity:1"
           id="rect13810"
           width="10.606602"
           height="6.7175145"
           x="158.63942"
           y="281.60526" />
        <rect
           style="fill:#cccccc;fill-opacity:1;stroke:#6c5353;stroke-width:0.5;stroke-opacity:1"
           id="rect13812"
           width="10.606602"
           height="6.7175145"
           x="180.59508"
           y="281.60526" />
        <rect
           style="fill:#cccccc;fill-opacity:1;stroke:#6c5353;stroke-width:0.5;stroke-opacity:1"
           id="rect13814"
           width="10.606602"
           height="6.7175145"
           x="202.55074"
           y="281.60526" />
        <rect
           style="fill:#cccccc;fill-opacity:1;stroke:#6c5353;stroke-width:0.5;stroke-opacity:1"
           id="rect13816"
           width="10.606602"
           height="6.7175145"
           x="26.905413"
           y="281.60526" />
        <rect
           style="fill:#cccccc;fill-opacity:1;stroke:#6c5353;stroke-width:0.5;stroke-opacity:1"
           id="rect13818"
           width="10.606602"
           height="6.7175145"
           x="4.9497476"
           y="281.78204" />
        <rect
           style="fill:#cccccc;fill-opacity:1;stroke:#6c5353;stroke-width:0.5;stroke-opacity:1"
           id="rect13820"
           width="10.606602"
           height="6.7175145"
           x="224.50641"
           y="281.78204" />
      </g>
      <g
         id="g13857"
         transform="translate(0,-63.185562)">
        <rect
           style="fill:#cccccc;fill-opacity:1;stroke:#6c5353;stroke-width:0.5;stroke-opacity:1"
           id="rect13835"
           width="10.606602"
           height="6.7175145"
           x="48.861076"
           y="281.60526" />
        <rect
           style="fill:#cccccc;fill-opacity:1;stroke:#6c5353;stroke-width:0.5;stroke-opacity:1"
           id="rect13837"
           width="10.606602"
           height="6.7175145"
           x="70.816742"
           y="281.60526" />
        <rect
           style="fill:#cccccc;fill-opacity:1;stroke:#6c5353;stroke-width:0.5;stroke-opacity:1"
           id="rect13839"
           width="10.606602"
           height="6.7175145"
           x="92.772415"
           y="281.60526" />
        <rect
           style="fill:#cccccc;fill-opacity:1;stroke:#6c5353;stroke-width:0.5;stroke-opacity:1"
           id="rect13841"
           width="10.606602"
           height="6.7175145"
           x="114.72807"
           y="281.60526" />
        <rect
           style="fill:#cccccc;fill-opacity:1;stroke:#6c5353;stroke-width:0.5;stroke-opacity:1"
           id="rect13843"
           width="10.606602"
           height="6.7175145"
           x="136.68375"
           y="281.60526" />
        <rect
           style="fill:#cccccc;fill-opacity:1;stroke:#6c5353;stroke-width:0.5;stroke-opacity:1"
           id="rect13845"
           width="10.606602"
           height="6.7175145"
           x="158.63942"
           y="281.60526" />
        <rect
           style="fill:#cccccc;fill-opacity:1;stroke:#6c5353;stroke-width:0.5;stroke-opacity:1"
           id="rect13847"
           width="10.606602"
           height="6.7175145"
           x="180.59508"
           y="281.60526" />
        <rect
           style="fill:#cccccc;fill-opacity:1;stroke:#6c5353;stroke-width:0.5;stroke-opacity:1"
           id="rect13849"
           width="10.606602"
           height="6.7175145"
           x="202.55074"
           y="281.60526" />
        <rect
           style="fill:#cccccc;fill-opacity:1;stroke:#6c5353;stroke-width:0.5;stroke-opacity:1"
           id="rect13851"
           width="10.606602"
           height="6.7175145"
           x="26.905413"
           y="281.60526" />
        <rect
           style="fill:#cccccc;fill-opacity:1;stroke:#6c5353;stroke-width:0.5;stroke-opacity:1"
           id="rect13853"
           width="10.606602"
           height="6.7175145"
           x="4.9497476"
           y="281.78204" />
        <rect
           style="fill:#cccccc;fill-opacity:1;stroke:#6c5353;stroke-width:0.5;stroke-opacity:1"
           id="rect13855"
           width="10.606602"
           height="6.7175145"
           x="224.50641"
           y="281.78204" />
      </g>
    </g>
    <g
       id="g24076"
       transform="matrix(0.79551805,0.14114221,-0.14114221,0.79551805,-54.56044,-87.443593)">
      <g
         id="g14217"
         transform="matrix(0.7472174,0,0,0.7472174,162.51526,26.407173)">
        <path
           id="path9403"
           style="fill:#d2510d;fill-opacity:1;stroke-width:2.25349"
           d="m 89.833869,191.62354 a 63.10928,63.738277 0 0 1 4.91797,24.65235 A 63.10928,63.738277 0 0 1 31.642467,280.01417 63.10928,63.738277 0 0 1 -0.65636288,270.90089 63.10928,63.738277 0 0 0 57.453009,310.0669 63.10928,63.738277 0 0 0 120.56239,246.32862 63.10928,63.738277 0 0 0 89.833869,191.62354 Z" />
        <g
           id="g14211"
           transform="matrix(1.0653474,0,0,1.0653474,-134.4758,-16.394008)">
          <ellipse
             style="fill:#f0d570;fill-opacity:1;stroke-width:2.46684"
             id="path894"
             cx="287.34595"
             cy="90.072876"
             rx="49.428242"
             ry="58.598709"
             transform="matrix(0.80595549,0.59197613,-0.62997478,0.77661559,0,0)" />
          <ellipse
             style="fill:#ff9955;stroke-width:2.20892"
             id="ellipse976"
             cx="287.34595"
             cy="90.072876"
             rx="44.260231"
             ry="52.47187"
             transform="matrix(0.80595549,0.59197613,-0.62997478,0.77661559,0,0)" />
        </g>
      </g>
      <g
         id="g24060">
        <ellipse
           style="fill:#ffe6d5;fill-opacity:1;stroke-width:1.58641"
           id="path14607"
           cx="72.82666"
           cy="278.34573"
           transform="rotate(-29.985351)"
           rx="41.896076"
           ry="35.151932" />
        <path
           sodipodi:type="star"
           style="fill:#e39f14;fill-opacity:1;stroke-width:1.9"
           id="path14265"
           inkscape:flatsided="true"
           sodipodi:sides="3"
           sodipodi:cx="-42.813335"
           sodipodi:cy="-53.694462"
           sodipodi:r1="16.087782"
           sodipodi:r2="8.043891"
           sodipodi:arg1="1.0244363"
           sodipodi:arg2="2.0716339"
           inkscape:rounded="0.18"
           inkscape:randomized="0"
           inkscape:transform-center-x="-0.40857831"
           inkscape:transform-center-y="-1.1068057"
           transform="matrix(0.74252708,-0.42508108,0.35576398,0.62351396,253.07846,243.31824)"
           d="m -34.454436,-39.948716 c -4.285499,2.606047 -24.328361,-8.365225 -24.442514,-13.379599 -0.114153,-5.014375 19.408677,-16.886367 23.80833,-14.478039 4.399652,2.408328 4.919683,25.251591 0.634184,27.857638 z" />
        <path
           sodipodi:type="star"
           style="fill:#e39f14;fill-opacity:1;stroke-width:1.9"
           id="path14347"
           inkscape:flatsided="true"
           sodipodi:sides="3"
           sodipodi:cx="-42.813335"
           sodipodi:cy="-53.694462"
           sodipodi:r1="16.087782"
           sodipodi:r2="8.043891"
           sodipodi:arg1="1.0244363"
           sodipodi:arg2="2.0716339"
           inkscape:rounded="0.18"
           inkscape:randomized="0"
           inkscape:transform-center-x="-4.4960442"
           inkscape:transform-center-y="1.7887474"
           transform="matrix(0.64930246,0.36885031,-0.50628132,0.65834112,179.78047,270.08346)"
           d="m -34.454436,-39.948716 c -4.285499,2.606047 -24.328361,-8.365225 -24.442514,-13.379599 -0.114153,-5.014375 19.408677,-16.886367 23.80833,-14.478039 4.399652,2.408328 4.919683,25.251591 0.634184,27.857638 z" />
        <path
           sodipodi:type="star"
           style="fill:#e39f14;fill-opacity:1;stroke-width:1.9"
           id="path14451"
           inkscape:flatsided="true"
           sodipodi:sides="3"
           sodipodi:cx="-42.813335"
           sodipodi:cy="-53.694462"
           sodipodi:r1="16.087782"
           sodipodi:r2="8.043891"
           sodipodi:arg1="1.0244363"
           sodipodi:arg2="2.0716339"
           inkscape:rounded="0.18"
           inkscape:randomized="0"
           inkscape:transform-center-x="3.0489175"
           inkscape:transform-center-y="3.0356935"
           transform="matrix(-0.09712685,0.75420915,-0.81760678,0.02514221,133.20748,228.32091)"
           d="m -34.454436,-39.948716 c -4.285499,2.606047 -24.328361,-8.365225 -24.442514,-13.379599 -0.114153,-5.014375 19.408677,-16.886367 23.80833,-14.478039 4.399652,2.408328 4.919683,25.251591 0.634184,27.857638 z" />
        <path
           sodipodi:type="star"
           style="fill:#e39f14;fill-opacity:1;stroke-width:1.9"
           id="path14453"
           inkscape:flatsided="true"
           sodipodi:sides="3"
           sodipodi:cx="-42.813335"
           sodipodi:cy="-53.694462"
           sodipodi:r1="16.087782"
           sodipodi:r2="8.043891"
           sodipodi:arg1="1.0244363"
           sodipodi:arg2="2.0716339"
           inkscape:rounded="0.18"
           inkscape:randomized="0"
           inkscape:transform-center-x="0.42735673"
           inkscape:transform-center-y="0.88144801"
           transform="matrix(-0.75103038,0.40965866,-0.33744308,-0.63375339,153.57914,163.52418)"
           d="m -34.454436,-39.948716 c -4.285499,2.606047 -24.328361,-8.365225 -24.442514,-13.379599 -0.114153,-5.014375 19.408677,-16.886367 23.80833,-14.478039 4.399652,2.408328 4.919683,25.251591 0.634184,27.857638 z" />
        <path
           sodipodi:type="star"
           style="fill:#e39f14;fill-opacity:1;stroke-width:1.9"
           id="path14455"
           inkscape:flatsided="true"
           sodipodi:sides="3"
           sodipodi:cx="-42.813335"
           sodipodi:cy="-53.694462"
           sodipodi:r1="16.087782"
           sodipodi:r2="8.043891"
           sodipodi:arg1="1.0244363"
           sodipodi:arg2="2.0716339"
           inkscape:rounded="0.18"
           inkscape:randomized="0"
           inkscape:transform-center-x="4.4022441"
           inkscape:transform-center-y="-1.6808517"
           transform="matrix(-0.63618271,-0.38551613,0.52267201,-0.64872251,227.99029,139.9609)"
           d="m -34.454436,-39.948716 c -4.285499,2.606047 -24.328361,-8.365225 -24.442514,-13.379599 -0.114153,-5.014375 19.408677,-16.886367 23.80833,-14.478039 4.399652,2.408328 4.919683,25.251591 0.634184,27.857638 z" />
        <path
           sodipodi:type="star"
           style="fill:#e39f14;fill-opacity:1;stroke-width:1.9"
           id="path14457"
           inkscape:flatsided="true"
           sodipodi:sides="3"
           sodipodi:cx="-42.813335"
           sodipodi:cy="-53.694462"
           sodipodi:r1="16.087782"
           sodipodi:r2="8.043891"
           sodipodi:arg1="1.0244363"
           sodipodi:arg2="2.0716339"
           inkscape:rounded="0.18"
           inkscape:randomized="0"
           inkscape:transform-center-x="-2.8746265"
           inkscape:transform-center-y="-2.7068615"
           transform="matrix(0.05059372,-0.75156873,0.8217997,-0.06788241,272.24803,179.24012)"
           d="m -34.454436,-39.948716 c -4.285499,2.606047 -24.328361,-8.365225 -24.442514,-13.379599 -0.114153,-5.014375 19.408677,-16.886367 23.80833,-14.478039 4.399652,2.408328 4.919683,25.251591 0.634184,27.857638 z" />
        <ellipse
           style="fill:#ffccaa;fill-opacity:1;stroke-width:1.48905"
           id="path14481"
           cx="73.582909"
           cy="279.48785"
           transform="rotate(-29.985351)"
           rx="5.1424785"
           ry="4.3146777" />
      </g>
    </g>
  </g>
</svg>
